<svg width="1024" height="1024" viewBox="0 0 1024 1024" fill="none" xmlns="http://www.w3.org/2000/svg">
<rect x="80" y="80" width="864" height="864" rx="216" fill="url(#paint0_linear_29_4)"/>
<path fill-rule="evenodd" clip-rule="evenodd" d="M583.477 227.597C587.479 229.824 590.62 233.328 592.398 237.549C594.177 241.77 594.49 246.465 593.289 250.885L538.841 450.5H737.5C741.495 450.5 745.403 451.668 748.743 453.859C752.084 456.051 754.711 459.17 756.302 462.835C757.894 466.499 758.379 470.549 757.7 474.486C757.021 478.423 755.206 482.075 752.479 484.995L465.479 792.495C462.353 795.851 458.191 798.062 453.66 798.775C449.129 799.487 444.49 798.659 440.485 796.423C436.48 794.188 433.341 790.674 431.569 786.444C429.797 782.213 429.495 777.51 430.711 773.088L485.159 573.5H286.5C282.505 573.5 278.597 572.332 275.257 570.141C271.916 567.949 269.289 564.83 267.698 561.165C266.106 557.501 265.621 553.451 266.3 549.514C266.979 545.577 268.794 541.925 271.521 539.005L558.521 231.505C561.647 228.161 565.803 225.959 570.325 225.251C574.848 224.542 579.478 225.368 583.477 227.597Z" fill="white"/>
<defs>
<linearGradient id="paint0_linear_29_4" x1="512" y1="80" x2="512" y2="944" gradientUnits="userSpaceOnUse">
<stop stop-color="#EC4899"/>
<stop offset="1" stop-color="#831843"/>
</linearGradient>
</defs>
</svg>
