<?xml version="1.0" encoding="UTF-8"?>
<svg xmlns="http://www.w3.org/2000/svg" viewBox="0 0 1024 1024">
    <defs>
        <linearGradient id="a0" x1="1.3" y1="1024" x2="1.3" y2="1025" gradientTransform="translate(-589.5 844706) scale(824 -824)" gradientUnits="userSpaceOnUse">
            <stop offset="0" stop-color="#595959"/>
            <stop offset="1" stop-color="#ccc"/>
        </linearGradient>
        <linearGradient id="a1" x1=".9" y1="1024.9" x2="1.6" y2="1024.2" gradientTransform="translate(-496.6 735439.5) scale(717.4 -717.4)" gradientUnits="userSpaceOnUse">
            <stop offset="0" stop-color="#da3f8b"/>
            <stop offset=".8" stop-color="#881947" stop-opacity=".4"/>
            <stop offset="1" stop-color="#881947" stop-opacity=".2"/>
        </linearGradient>
    </defs>
    <path fill="url(#a0)" d="M923.5,302.5c-.5-18-1.5-36.1-4.7-53.8-3.2-18-8.5-34.8-16.9-51.1-8.2-16.1-18.9-30.8-31.7-43.6-12.8-12.8-27.5-23.5-43.6-31.6-16.4-8.3-33.2-13.6-51.2-16.9-17.8-3.2-35.9-4.2-53.8-4.7-8.2-.2-16.5-.3-24.7-.4-9.8,0-359.3,0-369.1,0-8.3,0-16.5.1-24.8.4-18,.5-36.1,1.5-53.9,4.7-18.1,3.2-34.9,8.5-51.3,16.9-16.1,8.2-30.9,18.9-43.7,31.6-12.8,12.8-23.5,27.5-31.7,43.6-8.4,16.4-13.7,33.1-16.9,51.2-3.2,17.7-4.3,35.8-4.7,53.8-.2,8.2-.3,16.5-.4,24.7,0,9.8,0,359.7,0,369.5,0,8.3.1,16.5.4,24.8.5,18,1.5,36.1,4.7,53.9,3.2,18,8.5,34.8,16.9,51.2,8.2,16.1,18.9,30.8,31.7,43.6,12.8,12.8,27.5,23.5,43.7,31.7,16.4,8.3,33.2,13.6,51.3,16.9,17.8,3.2,35.9,4.3,53.9,4.7,8.3.2,16.5.3,24.8.4,9.8-.8,19.6,0,29.4,0h112.6s85.2,0,85.2,0h112.4c9.8,0,19.6-.9,29.4,0,8.2,0,16.5-.1,24.7-.4,18-.5,36.1-1.5,53.8-4.7,18-3.2,34.8-8.5,51.2-16.9,16.1-8.2,30.8-18.9,43.6-31.7,12.8-12.8,23.5-27.5,31.7-43.6,8.3-16.4,13.6-33.2,16.9-51.2,3.2-17.8,4.2-35.9,4.7-53.9.2-8.3.3-16.5.4-24.8-.8-9.8-.1-386-.4-394.3Z"/>
    <path fill="#240913" d="M891.1,342.1c0-7.6-.1-15.2-.3-22.7-.4-16.5-1.4-33.2-4.4-49.5-3-16.6-7.8-32-16.4-47-6.6-14.8-16.5-28.3-28.2-40.1-11.7-11.7-25.3-21.6-40.1-29.1-15.1-7.7-30.5-12.5-47.1-15.5-16.3-2.9-33-3.9-49.5-4.4-7.6-.2-353.2-.4-362.3-.3-7.6,0-15.2.1-22.8.3-16.6.4-33.3,1.4-49.6,4.4-16.6,3-32.1,7.8-47.2,15.5-14.8,7.5-28.4,17.4-40.2,29.1-11.8,11.7-21.6,25.3-29.2,40.1-7.7,15.1-12.6,30.5-15.5,47.1-2.9,16.3-3.9,33-4.4,49.5-.2,7.6-.3,15.2-.3,22.7,0,9-.5,20.2-.5,29.2,0,0,.5,301.7.5,310.8,0,7.6.1,15.2.3,22.8.4,16.5,1.4,33.2,4.4,49.6,3,16.6,7.9,32,15.5,47.1,7.6,14.8,17.4,28.4,29.2,40.1,11.8,11.8,25.3,21.6,40.2,29.1,15.1,7.7,30.6,12.5,47.2,15.5,16.4,2.9,33.1,3.9,49.6,4.4,7.6.2,15.2.3,22.8.3,9,0,330.5,0,339.5,0,7.6,0,15.2-.1,22.7-.3,16.5-.4,33.2-1.4,49.5-4.4,16.6-3,32-7.8,47.1-15.5,14.8-7.5,28.3-17.4,40.1-29.1,11.7-11.8,21.6-25.3,29.1-40.1,7.7-15.1,12.5-30.5,15.5-47.1,2.9-16.3,3.9-33,4.4-49.6.2-7.6.4-353.7.3-362.7Z"/>
    <path fill="#282a36" d="M870.8,376.9c0-8.5,0-17,0-25.6,0-8.1-.1-14.3-.3-21.5-.4-15.6-1.3-31.4-4.1-46.9-2.8-15.7-7.4-30.3-14.7-44.5-7.1-14-16.4-26.8-27.6-37.9-11.1-11.1-23.9-20.4-37.9-27.5-14.3-7.3-28.9-11.9-44.6-14.7-15.5-2.8-31.2-3.7-46.9-4.1-7.2-.2-14.4-.3-21.5-.3-8.5,0-17,0-25.6,0l-98.9-.4h-74l-97.2.4c-8.5,0-17.1,0-25.6,0-7.2,0-14.4.1-21.6.3-15.7.4-31.5,1.3-47,4.1-15.7,2.8-30.3,7.4-44.6,14.7-14,7.1-26.9,16.4-38,27.5-11.1,11.1-20.5,23.9-27.6,37.9-7.3,14.3-11.9,28.9-14.7,44.5-2.8,15.4-3.7,31.2-4.1,46.8-.2,7.2-.3,14.3-.3,21.5,0,8.5-.5,19.1-.5,27.6v95.8s0,74.8,0,74.8l.4,97.9c0,8.5,0,17.1,0,25.6,0,7.2.1,14.4.3,21.5.4,15.7,1.3,31.4,4.1,46.9,2.8,15.7,7.4,30.3,14.7,44.6,7.1,14,16.5,26.9,27.6,38,11.1,11.1,24,20.4,38,27.6,14.3,7.3,28.9,11.9,44.7,14.7,15.5,2.8,31.3,3.7,46.9,4.1,7.2.2,14.4.3,21.6.3,8.5,0,17.1,0,25.6,0h98.1s74.2,0,74.2,0h97.9c8.5,0,17,0,25.6,0,7.2,0,14.4-.1,21.5-.3,15.6-.4,31.4-1.3,46.9-4.1,15.7-2.8,30.3-7.4,44.5-14.7,14-7.1,26.8-16.5,37.9-27.6,11.1-11.1,20.4-24,27.6-38,7.3-14.3,11.9-28.9,14.7-44.6,2.8-15.5,3.7-31.3,4.1-46.9.2-7.2.3-14.4.3-21.5,0-8.5,0-17.1,0-25.6,0,0,0-96.2,0-97.9v-74.9c0-1.3,0-97.8,0-97.8Z"/>
    <path fill="url(#a1)" d="M870.1,351.5c0-8.1-.1-14.3-.3-21.5-.4-15.6-1.3-31.3-4.1-46.8-2.8-15.6-7.4-30.2-14.6-44.4-7.1-14-16.4-26.8-27.5-37.9-11.1-11.1-23.9-20.4-37.9-27.5-14.2-7.2-28.8-11.8-44.5-14.6-15.4-2.8-31.2-3.7-46.8-4.1-7.2-.2-14.3-.3-21.5-.3-8.5,0-312.2,0-320.7,0-7.2,0-14.4.1-21.5.3-15.6.4-31.4,1.3-46.9,4.1-15.7,2.8-30.3,7.4-44.5,14.6-14,7.1-26.8,16.4-37.9,27.5-11.1,11.1-20.4,23.9-27.6,37.8-7.3,14.2-11.9,28.8-14.7,44.5-2.8,15.4-3.7,31.1-4.1,46.7-.2,7.2-.8,40.5-.8,49,0,0,.4,285,.5,293.5,0,7.2.1,14.3.3,21.5.4,15.6,1.3,31.4,4.1,46.8,2.8,15.7,7.4,30.3,14.7,44.5,7.1,14,16.4,26.8,27.6,37.9,11.1,11.1,23.9,20.4,37.9,27.5,14.3,7.3,28.9,11.9,44.6,14.7,15.5,2.8,31.2,3.7,46.9,4.1,7.2.2,14.4.3,21.5.3,8.5,0,312.2,0,320.7,0,7.2,0,14.3-.1,21.5-.3,15.6-.4,31.3-1.3,46.8-4.1,15.7-2.8,30.2-7.4,44.5-14.7,14-7.1,26.8-16.4,37.9-27.5,11.1-11.1,20.4-23.9,27.5-37.9,7.2-14.2,11.8-28.8,14.7-44.5,2.8-15.4,3.7-31.2,4.1-46.8.2-7.2.3-14.3.3-21.5,0-8.5,0-312.6,0-321.1Z"/>
    <path fill="white" d="M374.6,254.2c4.9,2.4,7.5,7.7,6.4,13l-13.1,65.1h65.1c6.6,0,11.9,5.3,11.9,11.9,0,2.9-1,5.6-2.9,7.8l-103.5,118.9c-4.3,5-11.9,5.5-16.8,1.2-3.2-2.8-4.7-7.1-3.9-11.3l13.1-65.1h-65.1c-6.6,0-11.9-5.3-12.8-11.9,0-2.9,1.9-5.6,3.8-7.8l103.5-118.9c3.6-4.1,9.4-5.3,14.3-2.9Z"/>
</svg>
